PathFileType	4	(X/Y/Z)	Kaydara																																																																																																																									
DataRate	CameraRate	NumFrames	NumMarkers	Units	OrigDataRate	OrigDataStartFrame	OrigNumFrames																																																																																																																					
30	30	4	41	mm	30	43	148																																																																																																																					
Frame#	Time	SALE_LFHD			SALE_RFHD			SALE_LBHD			SALE_RBHD			SALE_LFTShould			SALE_RFTShould			SALE_LRRShould			SALE_RRRShould			SALE_T10			SALE_STRN			SALE_TRUN			SALE_LSHO			SALE_LUPA			SALE_LELB			SALE_LFRM			SALE_LWRA			SALE_LWRB			SALE_LFIN			SALE_RSHO			SALE_RUPA			SALE_RELB			SALE_RFRM			SALE_RWRB			SALE_RFIN			SALE_LFWT			SALE_RFWT			SALE_LBWT			SALE_RBWT			SALE_LTHI			SALE_LKNE			SALE_RWRA			SALE_LSHN			SALE_LANK			SALE_LHEE			SALE_LTOE			SALE_RTHI			SALE_RKNE			SALE_RSHN			SALE_RANK			SALE_RHEE			SALE_RTOE		
		X1	Y1	Z1	X2	Y2	Z2	X3	Y3	Z3	X4	Y4	Z4	X5	Y5	Z5	X6	Y6	Z6	X7	Y7	Z7	X8	Y8	Z8	X9	Y9	Z9	X10	Y10	Z10	X11	Y11	Z11	X12	Y12	Z12	X13	Y13	Z13	X14	Y14	Z14	X15	Y15	Z15	X16	Y16	Z16	X17	Y17	Z17	X18	Y18	Z18	X19	Y19	Z19	X20	Y20	Z20	X21	Y21	Z21	X22	Y22	Z22	X23	Y23	Z23	X24	Y24	Z24	X25	Y25	Z25	X26	Y26	Z26	X27	Y27	Z27	X28	Y28	Z28	X29	Y29	Z29	X30	Y30	Z30	X31	Y31	Z31	X32	Y32	Z32	X33	Y33	Z33	X34	Y34	Z34	X35	Y35	Z35	X36	Y36	Z36	X37	Y37	Z37	X38	Y38	Z38	X39	Y39	Z39	X40	Y40	Z40	X41	Y41	Z41
																																																																																																																												
19	1.4	229.75159	1654.18991	-2000.53146	97.3609	1651.47644	-2006.10321	231.10008	1636.19843	-2136.20148	103.47795	1631.59195	-2133.96362	242.93552	1394.2128	-2039.14383	102.88743	1392.22412	-2037.64038	235.67413	1446.3797	-2154.59274	85.86611	1451.58539	-2145.92728	160.15675	1293.65112	-2215.36301	169.09292	1321.7691	-1989.37149	167.60935	1236.68213	-1946.46454	355.53444	1417.23129	-2107.36328	397.9435	1200.42397	-2108.05832	383.07312	1089.33815	-2124.72488	410.62469	984.72855	-2088.58521	348.11569	850.71968	-2017.79724	413.44662	841.28014	-2054.76898	409.78012	801.45531	-2003.36578	-4.74765	1419.6138	-2097.86087	-35.94934	1188.65723	-2155.92941	-63.76015	1088.68027	-2110.36453	-53.01118	974.10538	-2116.63055	-75.43107	836.88232	-2067.06863	-89.66337	800.89493	-2013.40881	295.5537	979.15916	-2002.04056	16.32741	976.76712	-2019.95361	247.31052	1043.01697	-2171.84296	69.71808	1046.59119	-2182.74414	298.31329	674.84268	-2156.6069	278.57662	510.95448	-2069.45282	-37.11891	852.95334	-2008.50601	270.994	308.33166	-2076.65131	268.06519	125.39518	-2131.38992	228.89656	74.54766	-2197.21832	236.16913	89.29935	-2000.64514	16.75419	723.57262	-2169.22852	42.42374	569.87072	-2059.88205	91.56195	375.6464	-2069.15527	46.9697	123.58858	-2127.66556	98.43494	63.06304	-2198.01147	58.79749	83.26201	-2009.27887
20	1.433	229.43716	1654.0451	-1998.91403	97.0646	1651.32813	-2004.61655	230.91515	1635.90149	-2134.59976	103.22961	1631.37283	-2132.45422	242.63439	1394.04938	-2037.85416	102.58943	1392.15149	-2036.47736	235.29522	1446.17767	-2153.37097	85.45058	1451.3559	-2144.69696	159.84083	1293.35999	-2213.92365	168.75134	1321.81671	-1988.07983	167.27692	1236.77208	-1944.89334	355.28278	1417.02682	-2106.41678	397.59739	1200.22774	-2107.63672	382.6458	1089.1362	-2124.11972	410.42286	984.53369	-2088.16895	347.99446	850.6073	-2016.98196	413.41442	841.03516	-2054.44153	410.04543	801.23604	-2003.12683	-5.0658	1419.33334	-2096.68411	-36.03766	1188.39104	-2154.76013	-63.92545	1088.34846	-2109.43329	-53.12019	973.83034	-2115.76508	-75.81944	836.58386	-2066.52527	-90.06595	800.52551	-2012.78198	295.3162	979.44008	-2000.06577	15.75924	976.65466	-2018.44467	247.27194	1043.13431	-2170.01801	69.73972	1046.60103	-2181.19446	298.62865	674.8851	-2154.14291	278.19063	510.91156	-2066.61865	-37.51879	852.51984	-2007.63245	270.78579	308.05519	-2075.01511	268.17829	125.47464	-2131.00189	229.0313	74.56126	-2197.28378	236.1208	89.50329	-2000.84122	17.03587	723.34282	-2167.40448	42.75255	569.91943	-2057.60818	91.89748	375.45219	-2067.14783	47.07011	123.69944	-2127.57126	98.4024	62.94288	-2198.20709	59.09526	83.66638	-2009.42886
21	1.467	229.12823	1653.88	-1996.92551	96.65363	1651.16928	-2002.65564	230.50255	1635.38925	-2132.5351	102.82968	1630.90652	-2130.40497	242.24979	1393.87085	-2036.09756	102.09878	1391.92947	-2034.64706	234.8307	1446.00723	-2151.63345	84.91867	1451.08002	-2142.95975	159.37371	1293.14407	-2212.07443	168.25426	1321.66031	-1986.15616	166.90338	1236.68022	-1942.99561	354.73148	1416.72287	-2104.53064	397.16389	1200.10544	-2106.44043	382.146	1089.00528	-2123.04794	410.09903	984.32892	-2087.3439	347.73621	850.336	-2016.10733	413.20362	840.81589	-2053.98987	410.09064	800.86273	-2002.827	-5.5502	1419.0831	-2094.95575	-36.27973	1188.01086	-2153.04535	-64.19397	1087.97752	-2107.93503	-53.24901	973.51105	-2114.50989	-76.15592	836.31554	-2065.56671	-90.6596	799.97238	-2012.06406	295.17277	979.58893	-1997.84378	15.38809	976.67343	-2016.2175	246.9656	1043.02071	-2167.72293	69.4447	1046.54449	-2178.93524	297.8977	675.13847	-2152.36069	278.26077	510.92644	-2065.12131	-38.00049	852.164	-2006.49261	270.85833	307.90012	-2074.33762	268.30788	125.56787	-2130.94315	229.15199	74.5212	-2197.49466	236.20306	89.88212	-2001.20209	17.20365	723.55095	-2165.46478	42.66062	569.82025	-2055.73334	92.00542	375.28946	-2065.77209	47.14972	123.79932	-2127.612	98.40444	62.83185	-2198.35876	59.24469	84.04887	-2009.65546
22	1.5	228.36391	1653.6647	-1994.28711	96.0203	1651.03836	-2000.03677	229.84632	1634.92004	-2129.89655	102.23009	1630.44952	-2127.74612	240.231	1392.93213	-2032.67624	101.47992	1391.71646	-2032.31567	234.19695	1445.86761	-2149.32343	84.3002	1450.81711	-2140.70724	158.80696	1292.86636	-2209.67377	167.70206	1321.55701	-1983.87009	166.29173	1236.688	-1940.5574	354.07406	1416.7836	-2102.42844	396.70418	1200.00511	-2104.41193	381.63143	1088.98453	-2121.29639	409.67213	984.23286	-2086.06125	347.36412	849.87656	-2015.04395	412.87312	840.49896	-2053.20633	409.78039	800.35675	-2002.24228	-6.22007	1418.82034	-2092.81174	-36.49278	1187.72606	-2150.81833	-64.43783	1087.6886	-2106.0379	-53.41612	973.24844	-2112.68829	-76.5936	835.94025	-2064.2778	-91.46109	799.3409	-2010.98724	294.65317	979.48372	-1995.18143	14.94806	976.59157	-2013.41675	246.40455	1043.10059	-2164.83612	68.87296	1046.61217	-2175.97687	297.36444	675.49004	-2150.51559	278.13641	510.91423	-2063.91998	-38.82089	851.39725	-2004.94232	270.75306	307.77683	-2073.78632	268.39991	125.58516	-2131.0881	229.26252	74.42895	-2197.70966	236.19453	90.33258	-2001.61301	16.66163	723.55392	-2163.03391	42.58285	569.6941	-2053.78128	91.94098	375.0304	-2064.54437	47.06418	123.88493	-2127.77191	98.30107	62.62971	-2198.64502	59.36273	84.55674	-2010.02228
